<svg width="64" height="64" viewBox="0 0 64 64" fill="none" xmlns="http://www.w3.org/2000/svg">
<path d="M48.7619 57.9048H6.09524V15.2381H33.5238V9.14286H6.09524C2.74286 9.14286 0 11.8857 0 15.2381V57.9048C0 61.2571 2.74286 64 6.09524 64H48.7619C52.1143 64 54.8571 61.2571 54.8571 57.9048V30.4762H48.7619V57.9048ZM25.021 48.2438L19.0476 41.0514L10.6667 51.8095H44.1905L33.4019 37.4552L25.021 48.2438ZM54.8571 9.14286V0H48.7619V9.14286H39.619C39.6495 9.17333 39.619 15.2381 39.619 15.2381H48.7619V24.3505C48.7924 24.381 54.8571 24.3505 54.8571 24.3505V15.2381H64V9.14286H54.8571Z" fill="#F9F9F9"/>
</svg>
