<svg width="99" height="99" viewBox="0 0 99 99" fill="none" xmlns="http://www.w3.org/2000/svg">
<path d="M53.1961 87.6384C54.0819 90.5874 51.4432 93.3895 48.4463 92.6822L25.5747 87.284C22.5778 86.5767 21.4705 82.8905 23.5815 80.6488L39.6922 63.5404C41.8032 61.2987 45.5493 62.1828 46.4352 65.1318L53.1961 87.6384Z" fill="#A2BC86"/>
<path d="M89.7961 37.4068C92.8344 36.9067 95.2747 39.8832 94.1887 42.7645L89.3738 55.5385C88.2877 58.4198 84.4898 59.0449 82.5375 56.6637L73.8824 46.1069C71.9301 43.7257 73.2877 40.124 76.326 39.6239L89.7961 37.4068Z" fill="#A2BC86"/>
<path d="M41.6159 35.9216C42.2789 38.9285 39.4382 41.5257 36.5026 40.5964L8.4947 31.7309C5.55905 30.8017 4.7302 27.043 7.00277 24.9652L28.6845 5.14247C30.9571 3.06475 34.6266 4.2263 35.2897 7.23326L41.6159 35.9216Z" fill="#A2BC86"/>
</svg>
