<svg width="99" height="99" viewBox="0 0 99 99" fill="none" xmlns="http://www.w3.org/2000/svg">
<g clip-path="url(#clip0)">
<path d="M58.1961 71.6385C59.0819 74.5875 56.4432 77.3896 53.4463 76.6823L30.5747 71.2842C27.5778 70.5768 26.4705 66.8906 28.5815 64.6489L44.6922 47.5405C46.8032 45.2988 50.5493 46.1829 51.4352 49.132L58.1961 71.6385Z" fill="white"/>
<path d="M71.7961 35.6289C74.8344 35.1288 77.2747 38.1053 76.1887 40.9867L71.3738 53.7606C70.2877 56.642 66.4898 57.2671 64.5375 54.8859L55.8824 44.3291C53.9301 41.9479 55.2877 38.3462 58.326 37.8461L71.7961 35.6289Z" fill="white"/>
<path d="M49.4695 35.6697C50.0541 38.6929 47.1468 41.2153 44.2363 40.21L16.4685 30.6189C13.5581 29.6136 12.8273 25.8347 15.1531 23.8168L37.3431 4.56466C39.6689 2.54675 43.307 3.80335 43.8917 6.82654L49.4695 35.6697Z" fill="white"/>
</g>
<defs>
<clipPath id="clip0">
<rect width="99" height="99" fill="white"/>
</clipPath>
</defs>
</svg>
